# xmcd
#
# Track frame offsets: 
#        182
#        19122
#        29875
#        42427
#        60630
#        75547
#        88647
#        99540
#        114160
#        125875
#        137135
#        151857
#        163950
#        177772
#        193992
#        205055
#        218917
#        244787
#
# Disc length: 3429 seconds
#
# Revision: 3
# Processed by: cddbd v1.5.2PL0 Copyright (c) Steve Scherf et al.
# Submitted via: ExactAudioCopyFreeDBPlugin 1.0
#
DISCID=010d6312
DTITLE=Various Artist - Bar-B-Que Soul-a-Bration! [Rhino companion bo
DTITLE=x set to cookbook]
DYEAR=1998
DGENRE=Soul
TTITLE0=Professor Longhair - Red Beans
TTITLE1=Fats Domino - Jambalaya (On the Bayou)
TTITLE2=The Robins - Smokey Joe's Café
TTITLE3=Billy Vera and The Beaters - Millie Make Some Chili
TTITLE4=Ramsey Lewis Trio - The "In" Crowd
TTITLE5=J.J. Jackson - But It's Alright
TTITLE6=Booker T. and The M.G.'s - Soul-Limbo
TTITLE7=Aretha Franklin - Rock Steady
TTITLE8=The Capitols - Cool Jerk
TTITLE9=The Clovers - One Mint Julep
TTITLE10=Les McCann and Eddie Harris - Compared to What
TTITLE11=Archie Bell and The Drells - Tighten Up
TTITLE12=Marcia Ball - Mama's Cooking
TTITLE13=The Spinners - The Rubberband Man
TTITLE14=Wilson Pickett - Land of 1000 Dances
TTITLE15=Willie Bobo - Fried Neck Bones
TTITLE16=Big Twist and The Mellow Fellows - Too Much Barbeque
TTITLE17=Betty Wright - Clean Up Woman
EXTD=Rhino R2 75214           1998
EXTT0=
EXTT1=
EXTT2=
EXTT3=
EXTT4=
EXTT5=
EXTT6=
EXTT7=
EXTT8=
EXTT9=
EXTT10=
EXTT11=
EXTT12=
EXTT13=
EXTT14=
EXTT15=
EXTT16=
EXTT17=
PLAYORDER=
